# Blender 5.1.2
# www.blender.org
mtllib OptimizedWallBroken.mtl
o Broken_Wall
v 0.500000 9.999996 -10.000004
v 0.500000 -0.000004 -10.000000
v 0.500000 10.000004 9.999996
v 0.500000 0.000004 10.000000
v -0.500000 9.999996 -10.000004
v -0.500000 -0.000004 -10.000000
v -0.500000 10.000004 9.999996
v -0.500000 0.000004 10.000000
v 0.500000 -0.000003 -7.777778
v 0.500000 2.399312 -5.555555
v 0.500000 5.726798 -3.333333
v 0.500000 4.174166 -1.111111
v 0.500000 3.846075 1.111111
v 0.500000 4.533116 3.333334
v 0.500000 1.181453 5.555556
v 0.500000 0.000003 7.777778
v -0.493787 2.399312 -5.555555
v 0.006213 -0.000003 -7.777778
v -0.493787 4.174166 -1.111111
v -0.493787 5.726798 -3.333333
v -0.493787 3.846075 1.111111
v -0.493787 4.533116 3.333334
v -0.493787 1.181453 5.555556
v 0.006213 0.000003 7.777778
vn -0.0000 -0.0000 1.0000
vn -1.0000 -0.0000 -0.0000
vn -0.0000 -0.0000 -1.0000
vn 1.0000 -0.0000 -0.0000
vn 0.2969 -0.8431 -0.4483
vn -0.0000 -0.7405 -0.6721
vn -0.0000 -0.8830 -0.4694
vn 0.6566 -0.5020 -0.5629
vn -0.0000 -0.9418 -0.3361
vn 0.5764 -0.7697 -0.2746
vn -0.0000 -0.9971 0.0766
vn 0.6649 -0.7447 0.0572
vn -0.0000 -0.9293 -0.3693
vn 0.5330 -0.8315 0.1566
vn -0.0000 -0.9827 0.1850
vn -0.0000 -0.6194 0.7851
vn 0.4644 -0.6018 0.6497
vn -0.0000 -0.6795 0.7337
vn 0.6590 -0.6990 -0.2777
vn 0.6877 -0.4048 0.6026
vt 0.000106 0.000000
vt 0.062606 1.000000
vt 0.000106 1.000000
vt 0.000000 0.000000
vt 1.000000 1.000000
vt 0.000000 1.000000
vt 0.937500 0.000000
vt 0.937500 1.000000
vt 0.000106 0.000071
vt 0.999965 0.000070
vt 0.333392 0.427330
vt 0.062606 0.000000
vt 1.000000 0.000000
vt 0.999965 0.999929
vt 0.888869 0.999929
vt 0.777774 0.881801
vt 0.666679 0.546682
vt 0.555583 0.615376
vt 0.444488 0.582571
vt 0.222297 0.760032
vt 0.111202 0.999929
vt 0.000106 0.999929
vt 0.000000 0.897868
vt 0.142857 0.945882
vt 0.000000 0.945882
vt 0.358321 0.897868
vt 0.142857 0.897868
vt 0.501179 0.945882
vt 0.358321 0.945882
vt 0.501179 0.897868
vt 0.644036 0.945882
vt 0.786893 0.897868
vt 0.786893 0.945882
vt 1.234904 0.945882
vt 1.001550 0.897868
vt 1.001550 0.945882
vt 0.142857 0.897868
vt 0.644036 0.897868
vt 1.234904 0.897868
s 1
usemtl Material
f 3/1/1 8/2/1 4/3/1
f 7/4/2 6/5/2 8/6/2
f 5/7/3 2/5/3 6/8/3
f 1/9/4 3/10/4 11/11/4
f 3/1/1 7/12/1 8/2/1
f 7/4/2 5/13/2 6/5/2
f 5/7/3 1/13/3 2/5/3
f 3/10/4 4/14/4 16/15/4
f 16/15/4 15/16/4 14/17/4
f 14/17/4 13/18/4 12/19/4
f 11/11/4 10/20/4 9/21/4
f 14/17/4 12/19/4 11/11/4
f 3/10/4 16/15/4 14/17/4
f 9/21/4 2/22/4 1/9/4
f 3/10/4 14/17/4 11/11/4
f 11/11/4 9/21/4 1/9/4
usemtl Material.002
f 24/23/5 15/24/6 16/25/7
f 23/24/8 14/26/9 15/27/6
f 22/26/10 13/28/11 14/29/9
f 21/30/12 12/31/13 13/28/11
f 12/31/13 20/32/14 11/33/15
f 20/32/14 10/34/16 11/33/15
f 10/34/16 18/35/17 9/36/18
f 24/23/5 23/37/8 15/24/6
f 23/24/8 22/29/10 14/26/9
f 22/26/10 21/30/12 13/28/11
f 21/30/12 19/38/19 12/31/13
f 12/31/13 19/38/19 20/32/14
f 20/32/14 17/39/20 10/34/16
f 10/34/16 17/39/20 18/35/17
